<?xml version="1.0" encoding="iso-8859-1"?>
<!-- Generator: Adobe Illustrator 19.0.0, SVG Export Plug-In . SVG Version: 6.00 Build 0)  -->
<svg version="1.1" id="Capa_1" xmlns="http://www.w3.org/2000/svg" xmlns:xlink="http://www.w3.org/1999/xlink" x="0px" y="0px"
	 viewBox="0 0 387.4 387.4" style="enable-background:new 0 0 387.4 387.4;" xml:space="preserve">
<g>
	<g>
		<path d="M193.7,0C86.9,0,0,86.9,0,193.7s86.9,193.7,193.7,193.7s193.7-86.9,193.7-193.7S300.5,0,193.7,0z M193.7,367.4
			C97.9,367.4,20,289.5,20,193.7S97.9,20,193.7,20s173.7,77.9,173.7,173.7S289.5,367.4,193.7,367.4z"/>
	</g>
</g>
<g>
	<g>
		<path d="M302.2,136.2l-29.4-29.5c-3.9-3.9-10.2-3.9-14.1,0l-93.8,93.8l-36-36c-3.9-3.9-10.2-3.9-14.1,0L85.4,194
			c-3.9,3.9-3.9,10.2,0,14.1l72.6,72.6c3.9,3.9,10.2,3.9,14.1,0l130.1-130.4C306.1,146.4,306.1,140.1,302.2,136.2z M164.8,259.5
			l-58.4-58.4l15.3-15.4l36,36c3.9,3.9,10.2,3.9,14.1,0l93.9-93.8l15.3,15.3L164.8,259.5z"/>
	</g>
</g>
<g>
</g>
<g>
</g>
<g>
</g>
<g>
</g>
<g>
</g>
<g>
</g>
<g>
</g>
<g>
</g>
<g>
</g>
<g>
</g>
<g>
</g>
<g>
</g>
<g>
</g>
<g>
</g>
<g>
</g>
</svg>
